<svg xmlns="http://www.w3.org/2000/svg" width="1458.528" height="198.83" clip-rule="evenodd" fill-rule="evenodd" stroke-linejoin="round" stroke-miterlimit="2">
  <g fill="#276cba">
    <path d="M0 0v198.83h290.16V0zm4.813 4.97H285.35v188.89H4.812z"/>
    <path d="M91.932 19.525c-5.63 0-11.096.863-16.237 2.432h83.99v-2.432h-36.45zm112.484 0l-1.473 2.432h41.29l1.578-2.432zM62.068 28.271a51.77 51.77 0 00-4.886 3.569h102.504V28.27zm137.05 0l-2.161 3.569h40.861l2.317-3.569zM50.815 38.154a46.107 46.107 0 00-2.699 3.57h111.569v-3.57zm142.315 0l-2.162 3.57h40.435l2.317-3.57zM44.518 48.037a41.735 41.735 0 00-1.44 3.57h42.223a20.015 20.015 0 014.55-3.57zm79.2 0l.052 3.57h35.916v-3.57zm63.427 0l-2.163 3.57h40.008l2.319-3.57zM41.398 57.922a39.872 39.872 0 00-.496 3.568h39.405a22.536 22.536 0 011.04-3.568zm82.477 0l.06 3.568h35.75v-3.568zm57.281 0l-2.162 3.568h39.584l2.315-3.568zM40.838 67.805a41.97 41.97 0 00.398 3.57H79.98a47.198 47.198 0 01-.209-2.938c-.008-.212-.008-.421-.011-.632zm83.203 0l.059 3.57h35.586v-3.57zm51.129 0l-2.164 3.57h39.156l2.318-3.57zM42.705 77.687a44.035 44.035 0 001.291 3.57h38.826a19.37 19.37 0 01-1.582-3.57zm81.5 0l.06 3.57h35.42v-3.57zm44.979 0l-2.164 3.57h38.73l2.316-3.57zm-121.97 9.885a47.541 47.541 0 002.374 3.57H101.2c-5.063-.615-8.983-1.837-11.99-3.57zm76.444 0l-.048 3.57h36.076v-3.57zm39.537 0l-2.164 3.57h38.305l2.316-3.57zm-108.04 9.883a52.25 52.25 0 004.12 3.57h99.745v-3.57zm104.911 0l2.215 3.57h38.682l-2.32-3.57zM63.01 107.34a44.23 44.23 0 00-6.022 3.568h37.666c4.793-1.838 10.584-2.51 16.807-2.676h13.254l.045 2.676h34.26v-3.568zm103.19 0l2.212 3.568h38.973l-2.319-3.568zm-116.24 9.883a37.356 37.356 0 00-2.77 3.57h36.578a18.063 18.063 0 012.09-3.57zm74.905 0l.059 3.57h34.096v-3.57zm47.465 0l2.215 3.57h39.264l-2.32-3.57zm-128.574 9.882a33.7 33.7 0 00-1.256 3.57h39.188a33.92 33.92 0 01.316-3.57zm81.273 0l.06 3.57h33.93v-3.57zm53.432 0l2.215 3.57h39.554l-2.32-3.57zM41.314 136.99a33.01 33.01 0 00-.117 3.569h41.598a28.884 28.884 0 01-.732-3.569zm83.881 0l.059 3.569h33.766v-3.569zm59.399 0l2.213 3.569h39.845l-2.318-3.569zm-142.666 9.883c.257 1.21.578 2.4.963 3.57h46.527a16.627 16.627 0 01-3.625-3.57zm83.431 0l.061 3.57h33.6v-3.57zm65.366 0l2.214 3.57h40.137l-2.32-3.57zM45.68 156.756a38.35 38.35 0 002.265 3.57H159.02v-3.57zm151.175 0l2.215 3.57h40.428l-2.318-3.57zM53.512 166.64a45.008 45.008 0 004.384 3.568H159.02v-3.568zm149.476 0l2.215 3.568h40.719l-2.32-3.568zm-132.925 9.882a52.403 52.403 0 0017.445 2.965h71.511v-2.965zm139.056 0l1.84 2.965h40.992l-1.926-2.965z"/>
  </g>
  <path d="M390.916 95.424c9.743-2.362 21.849-8.415 21.849-22.587 0-6.939-2.953-12.992-7.972-16.535-4.281-3.247-11.072-5.019-22.144-5.019h-35.135v1.772c10.924.885 11.81 1.919 11.81 14.615v62.594c0 12.843-1.181 14.024-12.991 14.91v1.771h30.558c11.663 0 21.11-1.624 28.345-5.757 8.267-4.724 13.434-12.106 13.434-21.849 0-14.32-11.81-21.406-27.754-23.62zm-20.077-.739V63.241c0-5.61.442-7.381 2.214-8.12 1.772-.738 4.576-1.033 7.677-1.033 14.32 0 19.339 10.334 19.339 20.52 0 12.844-5.61 20.077-23.473 20.077zm0 2.805h5.757c19.487 0 28.492 7.972 28.492 23.325 0 15.944-10.186 23.03-22.292 23.03-8.71.148-11.957-3.1-11.957-14.467zM464.728 78.151c-15.5 0-35.135 11.367-35.135 36.907 0 16.682 12.844 33.659 35.283 33.659 16.83 0 34.692-12.4 34.692-35.873 0-19.782-14.467-34.693-34.84-34.693zm-1.328 2.805c14.91 0 23.768 16.387 23.768 34.692 0 22.292-9.596 30.264-20.963 30.264-14.91 0-24.211-13.582-24.211-34.545 0-19.634 9.596-30.41 21.406-30.41zM618.851 146.945v-1.771c-7.676-1.034-9.152-2.805-18.158-12.4-7.086-7.825-24.063-26.278-35.725-40.303 11.072-11.22 22.144-21.849 27.753-27.163 10.482-9.891 12.844-11.22 23.325-12.253v-1.772H584.16v1.772l2.805.295c7.529.886 8.12 2.657 2.51 9.3-6.2 7.53-19.192 20.52-27.164 28.197-3.248 3.1-6.2 5.61-8.71 6.496V69.146c0-14.172 1.329-15.206 11.81-16.091v-1.772h-34.84v1.772c10.334.885 11.663 1.919 11.663 16.091v59.936c0 13.73-1.329 15.206-11.663 16.092v1.771h35.579v-1.771c-11.22-.886-12.549-2.362-12.549-16.092V99.41c1.92 0 3.1.886 6.2 4.43 11.368 13.433 24.802 28.639 37.645 43.106zM685.43 146.355c-3.1-.886-4.723-1.92-7.528-5.167-2.657-2.805-5.462-6.496-8.858-11.663-3.247-4.724-7.529-12.105-9.153-15.058 6.348-2.657 13.435-7.824 13.435-17.272 0-6.348-2.953-11.072-7.087-13.582-4.133-2.657-9.595-3.69-16.829-3.69h-29.968v1.771c8.857.738 9.743 1.034 9.743 11.81v40.007c0 10.039-.886 10.777-10.186 11.663v1.771H650v-1.771c-9.3-.886-10.186-1.772-10.186-11.663v-16.386h3.248c5.61 0 6.79 1.328 9.3 5.757 2.363 3.986 6.348 11.22 9.301 15.501 4.576 6.938 9.153 9.448 19.782 9.448h3.69zm-45.616-31.888V88.78c0-4.576.59-6.2 6.496-6.2 8.12 0 15.205 5.167 15.205 16.239 0 5.757-2.214 11.072-5.905 13.434-2.805 1.772-6.643 2.214-10.334 2.214zM717.76 146.945v-1.771c-9.3-.886-10.186-1.476-10.186-11.515V93.357c0-10.186 1.034-10.63 10.186-11.663v-1.771h-31.149v1.771c9.153.738 10.039 1.477 10.039 11.663v40.302c0 10.039-.886 10.63-10.039 11.515v1.771zM764.854 97.343c-.886-6.791-1.477-12.106-2.51-16.682-2.362-.738-7.529-2.51-13.286-2.51-14.32 0-22.587 8.563-22.587 20.077 0 9.891 8.71 15.058 16.534 18.897l3.543 1.771c6.2 3.1 11.367 6.348 11.367 14.763 0 8.12-4.872 12.253-11.367 12.253-11.22 0-18.158-11.515-21.11-20.077l-1.92.443c1.033 6.495 2.51 15.205 3.396 17.715 2.51 1.624 9.005 4.724 17.715 4.724 13.139 0 23.472-8.415 23.472-20.077 0-11.368-8.414-16.387-16.829-20.225l-2.953-1.329c-6.938-3.248-12.4-6.2-12.4-14.615 0-6.053 4.28-11.367 10.777-11.367 8.562 0 13.138 7.676 16.386 16.534zM833.205 97.343c-.738-6.2-1.329-15.501-1.329-19.93h-1.328c-1.476 1.92-2.51 2.51-5.315 2.51H781.24c-3.1 0-4.28-.296-5.905-2.51h-1.328c-.148 5.315-.886 12.696-1.329 20.077h1.772c1.033-5.019 2.066-7.676 3.543-10.186 2.066-3.543 5.019-4.576 14.615-4.576h4.576v50.488c0 10.334-.738 11.072-10.777 11.958v1.771h32.921v-1.771c-10.334-.886-11.22-1.476-11.22-11.958V82.728h6.349c7.528 0 11.072.885 12.843 3.986 1.476 2.214 2.657 5.462 4.134 10.924zM891.37 129.23c-2.51 5.61-4.577 9.005-6.349 11.072-2.657 3.1-5.757 3.986-13.729 3.986-5.757 0-9.3-.295-10.63-1.624-1.328-1.18-2.066-3.543-2.066-8.415v-20.224h9.596c9.596 0 10.629 1.18 12.253 8.562h1.771v-20.52h-1.771c-1.476 7.233-2.067 8.562-12.253 8.562h-9.596V87.01c0-4.134.295-4.281 3.69-4.281h5.906c8.415 0 11.22.738 13.582 4.133 1.476 2.067 2.952 4.872 4.28 9.448l1.772-.295c-.59-6.053-1.033-13.139-1.18-16.091h-48.718v1.919c9.006.59 9.744 1.476 9.744 11.515v39.859c0 10.039-.738 10.924-10.777 11.958v1.771h52.408c.885-3.1 2.952-13.286 3.69-17.272zM970.054 79.923h-25.54v1.771c9.154.738 10.482 1.624 10.925 7.53.443 3.838.443 9.152.443 19.338v19.782h-.295l-42.074-48.421h-17.715v1.771c9.891.738 12.105 2.805 12.105 16.534v20.373c0 9.743-.443 15.944-.885 19.782-.59 5.315-2.658 5.905-9.744 6.79v1.772h25.835v-1.771c-8.415-.738-10.482-1.624-10.924-6.939-.591-3.69-.886-9.89-.886-19.634v-24.21h.147l45.322 53.292h2.657v-39.12c0-10.187.295-15.501.738-19.93.296-5.315 2.215-6.053 9.891-6.939zM1014.195 97.343c-.886-6.791-1.476-12.106-2.51-16.682-2.362-.738-7.529-2.51-13.286-2.51-14.32 0-22.587 8.563-22.587 20.077 0 9.891 8.71 15.058 16.534 18.897l3.543 1.771c6.2 3.1 11.367 6.348 11.367 14.763 0 8.12-4.871 12.253-11.367 12.253-11.22 0-18.158-11.515-21.11-20.077l-1.92.443c1.034 6.495 2.51 15.205 3.396 17.715 2.51 1.624 9.005 4.724 17.715 4.724 13.139 0 23.473-8.415 23.473-20.077 0-11.368-8.415-16.387-16.83-20.225l-2.952-1.329c-6.939-3.248-12.4-6.2-12.4-14.615 0-6.053 4.28-11.367 10.776-11.367 8.562 0 13.139 7.676 16.386 16.534zM1075.461 129.23c-2.51 5.61-4.576 9.005-6.348 11.072-2.657 3.1-5.757 3.986-13.729 3.986-5.757 0-9.3-.295-10.629-1.624-1.329-1.18-2.067-3.543-2.067-8.415v-20.224h9.596c9.596 0 10.63 1.18 12.253 8.562h1.772v-20.52h-1.772c-1.476 7.233-2.067 8.562-12.253 8.562h-9.596V87.01c0-4.134.295-4.281 3.69-4.281h5.906c8.415 0 11.22.738 13.582 4.133 1.476 2.067 2.952 4.872 4.28 9.448l1.772-.295c-.59-6.053-1.033-13.139-1.18-16.091h-48.718v1.919c9.006.59 9.744 1.476 9.744 11.515v39.859c0 10.039-.738 10.924-10.777 11.958v1.771h52.408c.885-3.1 2.952-13.286 3.69-17.272zM1154.146 79.923h-25.54v1.771c9.154.738 10.482 1.624 10.925 7.53.443 3.838.443 9.152.443 19.338v19.782h-.295l-42.074-48.421h-17.715v1.771c9.891.738 12.105 2.805 12.105 16.534v20.373c0 9.743-.442 15.944-.885 19.782-.59 5.315-2.658 5.905-9.744 6.79v1.772h25.835v-1.771c-8.415-.738-10.481-1.624-10.924-6.939-.59-3.69-.886-9.89-.886-19.634v-24.21h.148l45.321 53.292h2.657v-39.12c0-10.187.296-15.501.738-19.93.296-5.315 2.215-6.053 9.891-6.939zM1270.304 96.37v-1.925h-29.75v1.925l4.375.875c5.95 1.05 5.95 3.325 3.15 9.45-1.925 3.85-4.375 8.75-8.75 15.225-9.45-8.925-16.275-15.4-21.175-19.775 5.425-3.5 7.875-5.425 10.325-7.35 3.5-2.625 5.775-5.95 5.775-11.2 0-11.025-8.925-18.375-19.775-18.375-11.025 0-21.875 8.225-21.875 21.175 0 7 4.2 12.6 9.625 17.325-11.025 7.875-18.2 12.95-18.2 23.1 0 10.325 8.575 22.4 25.025 22.4 9.8 0 17.675-5.775 24.85-14.7 3.85 4.375 6.825 7.7 8.225 9.1 3.675 3.675 12.95 6.475 19.425 7l.875-1.05c-3.5-6.125-14.525-19.425-20.825-25.375 5.075-7.35 8.225-12.075 11.9-17.325 5.075-6.825 7.525-8.575 12.775-9.625zm-57.225-28c6.475 0 10.85 7.175 10.85 15.4 0 6.825-2.45 12.25-8.05 16.625-8.575-6.825-12.95-11.55-12.95-18.9 0-7.175 4.55-13.125 10.15-13.125zm.7 72.1c-8.225 0-18.025-6.475-18.025-18.2 0-7.175 3.5-12.25 8.75-16.625 9.625 8.925 16.625 15.4 27.125 26.6-3.5 4.55-10.325 8.225-17.85 8.225zM1381.02 123.473c-6.347 12.548-15.205 22.587-31.296 22.587-24.359 0-39.121-20.816-39.121-48.717 0-23.178 12.843-45.027 38.53-45.027 15.206 0 25.687 5.906 29.378 21.406l1.92-.59c-.887-6.2-1.477-12.106-2.658-20.225-3.69-.59-13.582-3.838-25.244-3.838-32.921 0-55.803 20.225-55.803 51.079 0 23.768 15.943 49.012 52.555 49.012 9.89 0 21.701-2.953 25.392-3.839 2.805-5.462 6.348-15.648 8.12-21.258zM1423.688 78.151c-15.5 0-35.135 11.367-35.135 36.907 0 16.682 12.843 33.659 35.283 33.659 16.83 0 34.692-12.4 34.692-35.873 0-19.782-14.467-34.693-34.84-34.693zm-1.329 2.805c14.91 0 23.768 16.387 23.768 34.692 0 22.292-9.595 30.264-20.963 30.264-14.91 0-24.21-13.582-24.21-34.545 0-19.634 9.595-30.41 21.405-30.41z" fill-opacity=".84" fill-rule="nonzero"/>
</svg>